<?xml version="1.0" encoding="UTF-8" standalone="no"?>
<!-- Created with Inkscape (http://www.inkscape.org/) -->

<svg
   xmlns:dc="http://purl.org/dc/elements/1.1/"
   xmlns:cc="http://creativecommons.org/ns#"
   xmlns:rdf="http://www.w3.org/1999/02/22-rdf-syntax-ns#"
   xmlns:svg="http://www.w3.org/2000/svg"
   xmlns="http://www.w3.org/2000/svg"
   xmlns:sodipodi="http://sodipodi.sourceforge.net/DTD/sodipodi-0.dtd"
   xmlns:inkscape="http://www.inkscape.org/namespaces/inkscape"
   width="1520.6263"
   height="382.42767"
   viewBox="0 0 402.3324 101.18398"
   version="1.1"
   id="svg8"
   inkscape:version="0.92.4 5da689c313, 2019-01-14"
   sodipodi:docname="keamatch.svg">
  <defs
     id="defs2" />
  <sodipodi:namedview
     id="base"
     pagecolor="#ffffff"
     bordercolor="#666666"
     borderopacity="1.0"
     inkscape:pageopacity="0.0"
     inkscape:pageshadow="2"
     inkscape:zoom="1.4"
     inkscape:cx="851.46579"
     inkscape:cy="53.642401"
     inkscape:document-units="mm"
     inkscape:current-layer="layer1"
     showgrid="false"
     units="px"
     inkscape:window-width="3840"
     inkscape:window-height="2024"
     inkscape:window-x="0"
     inkscape:window-y="0"
     inkscape:window-maximized="1"
     fit-margin-top="24"
     fit-margin-left="24"
     fit-margin-bottom="24"
     fit-margin-right="24" />
  <metadata
     id="metadata5">
    <rdf:RDF>
      <cc:Work
         rdf:about="">
        <dc:format>image/svg+xml</dc:format>
        <dc:type
           rdf:resource="http://purl.org/dc/dcmitype/StillImage" />
        <dc:title></dc:title>
      </cc:Work>
    </rdf:RDF>
  </metadata>
  <g
     inkscape:label="Layer 1"
     inkscape:groupmode="layer"
     id="layer1"
     transform="translate(-3.0756442,-193.26914)">
    <g
       aria-label="keaMatch"
       style="font-style:normal;font-weight:normal;font-size:67.80010986px;line-height:1.25;font-family:sans-serif;letter-spacing:0px;word-spacing:0px;fill:#000000;fill-opacity:1;stroke:none;stroke-width:1.69500256"
       id="text4555">
      <path
         d="m 128.53592,270.57126 h -8.61061 l -6.30541,-10.17002 -1.76281,-3.4578 -4.068,4.407 v 9.22082 h -7.05121 v -49.83308 h 6.98341 v 27.32344 l -0.1356,5.28841 11.86502,-13.89902 h 9.01741 l -11.72942,13.01762 z"
         style="font-style:normal;font-variant:normal;font-weight:normal;font-stretch:normal;font-family:Alata;-inkscape-font-specification:Alata;stroke-width:1.69500256"
         id="path828" />
      <path
         d="m 149.07932,271.24926 q -5.55961,0 -9.28862,-2.1696 -3.729,-2.23741 -5.49181,-5.89861 -1.7628,-3.72901 -1.7628,-8.13602 0,-4.9494 2.03401,-8.67841 2.1018,-3.72901 5.763,-5.69521 3.66121,-2.034 8.27162,-2.034 7.18681,0 10.64462,4.0002 3.5256,3.93241 3.5256,11.11922 0,1.8306 -0.2034,3.79681 H 140.1975 q 0.74581,4.1358 2.91541,5.96641 2.2374,1.8306 6.16981,1.8306 3.2544,0 5.35621,-0.5424 2.1018,-0.5424 3.8646,-1.4916 l 2.23741,5.22061 q -1.69501,1.0848 -4.61041,1.8984 -2.9154,0.8136 -7.05121,0.8136 z m 6.57661,-18.78063 q 0.0678,-4.20361 -1.8306,-5.89861 -1.89841,-1.7628 -5.42401,-1.7628 -7.11901,0 -8.20382,7.66141 z"
         style="font-style:normal;font-variant:normal;font-weight:normal;font-stretch:normal;font-family:Alata;-inkscape-font-specification:Alata;stroke-width:1.69500256"
         id="path830" />
      <path
         d="m 184.19974,271.24926 q -4.2036,0 -7.79701,-1.9662 -3.52561,-2.03401 -5.69521,-5.69521 -2.1018,-3.72901 -2.1018,-8.67842 0,-4.8816 1.8306,-8.54281 1.8984,-3.66121 5.35621,-5.69521 3.4578,-2.034 8.13601,-2.034 2.71201,0 5.08501,0.9492 2.373,0.9492 4.00021,2.373 1.6272,1.356 2.1696,2.71201 l 0.1356,-5.22061 h 6.98341 v 31.12025 h -6.91561 l -0.1356,-5.49181 q -1.1526,2.4408 -4.20361,4.33921 -3.051,1.8306 -6.84781,1.8306 z m 1.2204,-6.10201 q 3.86461,0 6.50882,-2.6442 2.6442,-2.71201 2.6442,-7.05122 v -0.4746 q 0,-2.9154 -1.2204,-5.22061 -1.2204,-2.3052 -3.32221,-3.5934 -2.1018,-1.2882 -4.61041,-1.2882 -4.3392,0 -6.71221,2.8476 -2.373,2.77981 -2.373,7.25461 0,4.54261 2.3052,7.39022 2.37301,2.7798 6.78001,2.7798 z"
         style="font-style:normal;font-variant:normal;font-weight:normal;font-stretch:normal;font-family:Alata;-inkscape-font-specification:Alata;stroke-width:1.69500256"
         id="path832" />
      <path
         d="m 225.42219,247.31582 -3.1188,-7.05121 -1.4238,7.05121 -4.61041,23.25544 h -7.52581 l 10.30561,-49.83308 h 0.81361 l 13.69562,26.91664 4.068,9.01742 4.06801,-9.01742 13.42442,-26.91664 h 0.7458 l 10.71242,49.83308 h -7.45801 l -5.01721,-23.25544 -1.4916,-7.05121 -2.71201,7.05121 -12.06842,23.25544 h -0.4068 z"
         style="font-style:normal;font-variant:normal;font-weight:normal;font-stretch:normal;font-family:Alata;-inkscape-font-specification:Alata;stroke-width:1.69500256"
         id="path834" />
      <path
         d="m 286.57779,271.24926 q -4.2036,0 -7.79701,-1.9662 -3.5256,-2.03401 -5.69521,-5.69521 -2.1018,-3.72901 -2.1018,-8.67842 0,-4.8816 1.8306,-8.54281 1.89841,-3.66121 5.35621,-5.69521 3.45781,-2.034 8.13601,-2.034 2.71201,0 5.08501,0.9492 2.37301,0.9492 4.00021,2.373 1.6272,1.356 2.1696,2.71201 l 0.1356,-5.22061 h 6.98341 v 31.12025 h -6.91561 l -0.1356,-5.49181 q -1.1526,2.4408 -4.2036,4.33921 -3.05101,1.8306 -6.84782,1.8306 z m 1.22041,-6.10201 q 3.8646,0 6.50881,-2.6442 2.6442,-2.71201 2.6442,-7.05122 v -0.4746 q 0,-2.9154 -1.2204,-5.22061 -1.2204,-2.3052 -3.32221,-3.5934 -2.1018,-1.2882 -4.6104,-1.2882 -4.33921,0 -6.71221,2.8476 -2.37301,2.77981 -2.37301,7.25461 0,4.54261 2.30521,7.39022 2.373,2.7798 6.78001,2.7798 z"
         style="font-style:normal;font-variant:normal;font-weight:normal;font-stretch:normal;font-family:Alata;-inkscape-font-specification:Alata;stroke-width:1.69500256"
         id="path836" />
      <path
         d="m 317.22343,245.41742 h -5.49181 v -5.96641 h 5.49181 v -12.67862 l 7.39021,-1.62721 v 14.30583 h 7.18681 v 5.96641 h -7.18681 v 25.15384 h -7.39021 z"
         style="font-style:normal;font-variant:normal;font-weight:normal;font-stretch:normal;font-family:Alata;-inkscape-font-specification:Alata;stroke-width:1.69500256"
         id="path838" />
      <path
         d="m 352.27599,271.24926 q -4.61041,0 -8.33942,-1.9662 -3.6612,-2.03401 -5.8308,-5.76301 -2.16961,-3.79681 -2.16961,-8.88182 0,-4.81381 1.96621,-8.40721 2.034,-3.66121 5.6274,-5.62741 3.66121,-1.9662 8.40722,-1.9662 3.5934,0 6.16981,0.9492 2.6442,0.8814 4.1358,2.2374 l -3.2544,5.89861 q -2.84761,-2.8476 -6.44101,-2.8476 -4.33921,0 -6.64441,2.6442 -2.23741,2.64421 -2.23741,7.05121 0,5.01721 2.30521,7.79702 2.373,2.7798 6.57661,2.7798 2.1018,0 4.06801,-0.6102 2.034,-0.6102 3.1188,-1.4238 l 2.6442,5.1528 q -1.4916,1.15261 -4.2036,2.10181 -2.64421,0.8814 -5.89861,0.8814 z"
         style="font-style:normal;font-variant:normal;font-weight:normal;font-stretch:normal;font-family:Alata;-inkscape-font-specification:Alata;stroke-width:1.69500256"
         id="path840" />
      <path
         d="m 369.70058,220.73818 h 7.11902 v 18.71283 l -0.27121,5.76301 q 1.28821,-2.84761 4.13581,-4.67821 2.84761,-1.8984 6.64441,-1.8984 4.81381,0 7.39021,2.034 2.57641,1.9662 3.45781,5.55961 0.8814,3.5934 0.8814,9.35641 v 14.98383 h -7.25461 v -15.05163 q 0,-3.9324 -0.4746,-6.16981 -0.4068,-2.2374 -1.7628,-3.39 -1.28821,-1.1526 -3.79681,-1.1526 -2.034,0 -4.13581,1.2204 -2.034,1.2204 -3.39,3.5934 -1.356,2.30521 -1.356,5.49181 v 15.45843 h -7.18682 z"
         style="font-style:normal;font-variant:normal;font-weight:normal;font-stretch:normal;font-family:Alata;-inkscape-font-specification:Alata;stroke-width:1.69500256"
         id="path842" />
    </g>
    <path
       id="path817"
       d="m 70.50399,239.93046 c -1.130608,-1.47527 -2.458018,-2.75284 -3.736172,-4.03116 -3.19543,-2.94944 -6.882437,-5.06349 -9.979541,-8.16045 -7.17738,-7.17755 -8.652187,-19.02505 -4.178603,-28.11971 -4.473584,1.12967 -8.603044,3.68706 -12.044272,6.48914 -12.486684,10.22527 -17.40272,28.26706 -11.503492,43.75258 0.196579,0.49238 0.393343,0.98289 0.393343,1.62205 0,1.08137 -0.73745,2.06483 -1.72053,2.45817 -1.081556,0.49051 -2.261364,0.19694 -3.146248,-0.59085 -0.295055,-0.24526 -0.491634,-0.49238 -0.73745,-0.83612 -5.407632,-7.03001 -6.292516,-17.10775 -2.605489,-25.1701 -8.062283,6.68573 -12.43754,17.99274 -11.749292,28.66041 0.196579,2.45797 0.491634,4.91596 1.327374,7.37412 0.688211,2.94961 1.966402,5.89923 3.539536,8.50455 5.112651,8.50474 14.108981,14.60072 23.793543,15.82963 10.323647,1.32663 21.384708,-0.59086 29.299501,-7.86558 8.848841,-8.16062 12.044253,-21.23722 7.374034,-32.44575 l -0.639161,-1.27832 c -0.983266,-2.2614 -2.310546,-4.27698 -3.932823,-6.14505 l 0.245816,-0.0557 M 55.2644,270.89336 c -1.376425,1.17983 -3.5887,2.45797 -5.309305,2.9496 -5.407631,1.96636 -10.815261,-0.78594 -14.109,-4.03117 5.850083,-1.37679 9.291292,-5.70265 10.274503,-10.07792 0.835739,-3.93269 -0.688213,-7.17736 -1.327373,-10.96271 -0.589922,-3.63782 -0.491633,-6.73497 0.884792,-10.12698 0.835739,1.86806 1.819005,3.7363 2.949613,5.21102 3.736171,4.91596 9.586235,7.07907 10.815244,13.7648 0.196579,0.68747 0.295054,1.37679 0.295054,2.11387 0.146784,4.03117 -1.573189,8.45568 -4.522747,11.15949 z"
       inkscape:connector-curvature="0"
       style="fill:#ff7f2a;stroke-width:4.9160223" />
  </g>
</svg>
